<svg width="459" height="133" viewBox="0 0 459 133" fill="none" xmlns="http://www.w3.org/2000/svg">
<path d="M316.69 0.013634C324.53 11.4662 330.461 21.5281 336.242 31.3447C345.145 46.4784 353.57 60.7669 368.254 78.9547C390.192 107.054 429.239 112.085 429.239 112.085C429.239 112.085 385.801 52.941 371.077 31.3447C356.365 9.74834 332.697 3.204 316.69 0" fill="white"/>
<path d="M382.545 23.9956C387.14 30.4718 404.128 58.2852 412.649 68.5107C424.388 81.9539 437.613 84.7625 447.798 86.8349C434.123 70.1059 423.502 54.0587 413.89 41.3654C404.292 28.6584 391.68 25.659 382.545 24.0092" fill="white"/>
<path d="M424.401 38.5845C426.432 41.4204 428.15 44.0381 429.827 46.6013C433.181 51.7277 436.358 56.5814 441.771 62.6622C448.56 69.9428 458.718 71.947 458.718 71.947C458.718 71.947 444.416 52.832 439.848 47.5148C435.294 42.1975 429.664 39.757 424.401 38.5845Z" fill="white"/>
<path d="M239.605 59.9082V85.0221H233.183V65.7572H218.908V85.0221H212.527V59.9082H239.618H239.605Z" fill="white"/>
<path d="M250.621 80.0724C253.661 80.0724 256.088 79.6225 257.915 78.709C259.742 77.7956 260.955 76.5276 261.555 74.9051H245.917V70.0242H261.555C260.355 66.5747 256.851 64.8569 251.043 64.8569C248.466 64.8569 246.421 65.1977 244.949 65.8658L243.981 60.4531C246.353 59.7305 248.698 59.376 251.043 59.376C256.401 59.376 260.628 60.5894 263.723 63.0163C266.818 65.4431 268.372 68.5926 268.372 72.4647C268.372 76.3367 266.832 79.5134 263.75 81.9403C260.669 84.3535 256.429 85.567 251.057 85.567C247.798 85.567 244.853 85.008 242.195 83.8763L244.24 78.5727C245.958 79.5816 248.085 80.0861 250.621 80.0861V80.0724Z" fill="white"/>
<path d="M296.758 78.0955L297.726 83.7263C295.067 84.9398 291.849 85.5533 288.073 85.5533C282.878 85.5533 278.747 84.3808 275.666 82.0221C272.585 79.6634 271.044 76.5548 271.044 72.6828C271.044 68.8107 272.585 65.5931 275.652 63.098C278.72 60.6166 282.865 59.3623 288.086 59.3623C291.359 59.3623 294.399 59.9077 297.194 61.012L295.653 66.711C293.595 65.7021 291.031 65.1977 287.937 65.1977C284.842 65.1977 282.156 65.9339 280.301 67.3928C278.434 68.8516 277.506 70.6104 277.506 72.6691C277.506 74.8506 278.474 76.5548 280.397 77.8228C282.319 79.0771 284.855 79.7043 287.991 79.7043C289.423 79.7043 291.018 79.5407 292.777 79.2271C294.535 78.8999 295.872 78.5318 296.771 78.0955H296.758Z" fill="white"/>
<path d="M321.762 85.0221L311.973 74.2239L306.806 77.9869V85.0221H300.384V59.9082H306.806V70.8563H306.983L320.904 59.9082H329.084L316.786 70.0928L329.957 85.0221H321.776H321.762Z" fill="white"/>
<path d="M44.0643 120.374C42.9054 119.993 42.0055 119.993 41.4874 119.993L40.8466 121.274C41.3647 121.015 42.3873 120.633 43.5462 121.015C45.4822 121.656 46.2457 123.333 45.7412 125.528L45.2231 125.405C43.8052 125.024 42.7827 124.628 41.3647 123.865L40.8466 125.405C42.3873 125.664 43.5462 125.923 44.8414 126.305L45.3595 126.428C44.5823 128.868 42.919 129.905 40.8466 129.264C39.1696 128.746 38.5288 127.205 38.5288 127.205L38.0107 129.005C38.0107 129.005 39.0469 129.646 40.5876 130.164C43.8052 131.2 46.5184 129.905 47.5409 126.687C48.6998 123.728 47.2819 121.274 44.0643 120.374Z" fill="white"/>
<path d="M10.1841 95.137C10.1841 96.2959 9.28426 97.332 7.98903 97.332C6.83013 97.332 5.79395 96.4322 5.79395 95.137C5.79395 93.8417 6.69379 92.9419 7.98903 92.9419C9.14792 92.9419 10.1841 93.9781 10.1841 95.137Z" fill="white"/>
<path d="M112.589 94.8782C112.589 96.0371 111.689 97.0733 110.394 97.0733C109.235 97.0733 108.199 96.1734 108.199 94.8782C108.199 93.7193 109.099 92.6831 110.394 92.6831C111.675 92.6831 112.589 93.7193 112.589 94.8782Z" fill="white"/>
<path d="M67.501 76.4575C67.6237 77.6164 67.6237 78.7753 67.6237 81.8702C67.6237 85.2242 67.6237 86.6421 67.501 87.6647H69.9415C69.8188 86.5058 69.8188 85.2242 69.8188 81.8702C69.8188 78.7753 69.8188 77.4937 69.9415 76.4575H67.501Z" fill="white"/>
<path d="M72.1386 84.7069C72.1386 86.7656 73.6793 87.9245 76.2561 87.9245C78.9557 87.9245 80.5099 86.7656 80.5099 84.5705C80.5099 83.1526 79.7328 82.2527 78.3149 81.7346C79.4737 81.3529 80.1145 80.453 80.1145 79.1578C80.1145 77.2218 78.6966 76.1992 76.3788 76.1992C73.9383 76.1992 72.5204 77.3581 72.5204 79.2941C72.5204 80.5757 73.1612 81.3529 74.3201 81.871C72.9021 82.2527 72.125 83.2889 72.125 84.7069H72.1386ZM76.2561 77.2354C77.2923 77.2354 77.9331 78.0125 77.9331 79.2941C77.9331 80.5757 77.2923 81.3529 76.3925 81.3529C75.3563 81.3529 74.7155 80.5757 74.7155 79.2941C74.7155 78.0125 75.2336 77.2354 76.2561 77.2354ZM76.2561 82.3891C77.415 82.3891 78.1921 83.2889 78.1921 84.7069C78.1921 86.1248 77.5513 86.9019 76.3925 86.9019C75.2336 86.9019 74.4564 86.0021 74.4564 84.5841C74.4564 83.3025 75.0972 82.3891 76.2561 82.3891Z" fill="white"/>
<path d="M81.9253 84.7069C81.9253 86.7656 83.4659 87.9245 86.0427 87.9245C88.7423 87.9245 90.2966 86.7656 90.2966 84.5705C90.2966 83.1526 89.5194 82.2527 88.1015 81.7346C89.2604 81.3529 89.9012 80.453 89.9012 79.1578C89.9012 77.2218 88.4832 76.1992 86.1654 76.1992C83.7249 76.1992 82.307 77.3581 82.307 79.2941C82.307 80.5757 82.9478 81.3529 84.1067 81.871C82.6888 82.2527 81.9116 83.2889 81.9116 84.7069H81.9253ZM86.0427 77.2354C87.0789 77.2354 87.7197 78.0125 87.7197 79.2941C87.7197 80.5757 87.0789 81.3529 86.1791 81.3529C85.1429 81.3529 84.5021 80.5757 84.5021 79.2941C84.5021 78.0125 85.1429 77.2354 86.0427 77.2354ZM86.0427 82.3891C87.2016 82.3891 87.9788 83.2889 87.9788 84.7069C87.9788 86.1248 87.338 86.9019 86.1791 86.9019C85.0202 86.9019 84.3794 86.0021 84.3794 84.5841C84.2567 83.3025 85.0202 82.3891 86.0564 82.3891H86.0427Z" fill="white"/>
<path d="M96.7476 80.4539C95.466 80.4539 94.6889 80.972 94.1708 81.6128C94.2935 79.036 94.9479 77.359 96.7476 77.359C98.1656 77.359 98.9427 78.7769 98.9427 78.7769V76.7182C98.9427 76.7182 98.1656 76.3364 96.6249 76.3364C93.7891 76.3364 91.853 78.5315 91.853 82.3899C91.853 86.2484 93.3937 88.0617 96.1069 88.0617C98.5473 88.0617 100.102 86.5211 100.102 84.0669C99.9789 81.7491 98.82 80.4539 96.7476 80.4539ZM96.2296 86.7665C95.0707 86.7665 94.2935 85.8666 94.2935 82.7717C94.6753 82.2536 95.3297 81.7355 96.0932 81.7355C97.2521 81.7355 97.8929 82.5126 97.8929 84.0533C97.7702 85.853 97.2521 86.7528 96.2159 86.7528L96.2296 86.7665Z" fill="white"/>
<path d="M88.8802 43.7524C73.0374 27.787 47.4054 27.787 31.699 43.7524C23.9685 51.4829 20.1101 61.5312 19.851 71.7022V73.1201V72.602C19.851 76.0787 20.2328 79.5554 21.1326 83.1684C26.8044 105.065 48.8234 118.208 70.4606 112.536C80.6316 109.837 88.8802 103.524 94.1565 95.1527H94.0338C89.1392 102.242 81.9268 107.642 73.0374 109.959C53.3362 115.113 33.1033 103.129 27.9633 83.1684C26.9271 79.31 26.6817 75.5743 26.8044 71.8385H28.4814C28.3587 74.9335 28.7404 78.0147 29.5176 81.1097C34.1531 99.0112 52.191 109.7 69.9561 105.065C76.3914 103.388 81.9404 99.7883 86.0579 95.1527C80.7816 100.17 73.5691 103.401 65.7023 103.401C57.2083 103.401 49.6005 99.7883 44.1878 93.9938L43.9287 93.7348C43.806 93.6121 43.806 93.4757 43.6697 93.4757C40.5748 89.9991 38.257 85.8816 37.0981 80.987C36.321 77.892 36.0619 74.9335 36.1982 71.8385H38.1343C38.0116 74.4154 38.257 76.9922 38.9114 79.569C42.3881 93.353 56.2948 101.588 69.9561 97.9886C72.2739 97.3478 74.469 96.448 76.5277 95.1527H76.0096C73.3101 96.3116 70.3379 96.9524 67.2566 96.9524C55.0269 96.9524 45.2376 87.0405 45.2376 74.6744C45.2376 73.6382 45.3603 72.7384 45.4967 71.7158H100.878C100.496 61.6675 96.5016 51.6193 88.8938 43.766L88.8802 43.7524ZM32.5989 70.666C33.376 66.5485 35.2984 62.5537 38.3933 59.4588C46.7646 50.9648 60.4123 50.9648 68.7836 59.4588C70.9787 61.6539 72.5193 64.2307 73.5555 66.9303L32.5989 70.666ZM75.3552 56.1185C65.4433 46.0702 49.3415 46.0702 39.4159 56.1185C35.2984 60.236 32.9806 65.3896 32.3262 70.8023L25.7546 71.3204C26.5317 65.0079 29.3676 58.8317 34.1259 53.937C45.7148 42.2118 64.5161 42.2118 76.1187 53.937C79.5954 57.4137 81.9132 61.6675 83.3311 66.0441L81.3951 66.1668C80.2362 62.431 78.3002 58.9544 75.3416 56.1185H75.3552ZM91.198 65.2669C89.78 59.5952 86.9441 54.3188 82.5676 49.9423C69.5607 36.7991 48.4416 36.7991 35.4211 49.9423C29.4903 55.8731 26.409 63.4672 25.7546 71.3204L21.8961 71.7022L19.8374 71.8249C20.3555 62.9355 23.8322 54.1824 30.5265 47.4881C44.9513 32.9406 68.3882 32.9406 82.813 47.4881C87.8303 52.5055 91.0616 58.6953 92.6023 65.2669H91.1843H91.198Z" fill="white"/>
<path d="M12.6387 101.709C15.3383 99.6501 18.1741 100.291 20.1102 102.99C21.01 104.272 21.5281 105.431 21.5281 105.431L19.9875 106.59C19.9875 106.59 20.5056 105.049 19.4694 103.631C18.1878 101.954 16.1154 101.832 13.934 103.509C11.8752 105.049 11.3571 106.985 12.6524 108.785C13.8113 110.326 15.0929 110.462 15.0929 110.462L14.193 111.362C14.193 111.362 12.9114 110.844 11.6162 108.921C9.81648 106.344 10.0755 103.509 12.6524 101.709H12.6387Z" fill="white"/>
<path d="M24.7459 115.236C22.6872 117.431 21.91 118.194 21.2692 118.971L19.7286 117.431C20.5057 116.79 21.4056 116.013 23.4643 113.818L26.1638 111.118L23.0689 108.023L20.3694 110.723C18.3106 112.918 17.5335 113.681 16.8927 114.458L15.3521 112.918C16.1292 112.277 17.029 111.5 19.0878 109.305C21.0238 107.369 21.6646 106.605 22.3054 105.828L28.3589 111.882C27.4591 112.522 26.6819 113.3 24.7459 115.236Z" fill="white"/>
<path d="M31.0594 122.311C29.9005 123.988 27.8418 124.111 26.0421 122.829C24.2424 121.547 23.6016 119.611 25.7831 116.653C27.8418 113.694 29.6415 113.435 32.3547 114.976L33.5136 115.617C34.1544 115.998 34.6725 115.998 34.6725 115.998L33.5136 117.675L31.3185 116.257C29.3824 114.976 28.2236 115.099 26.8056 116.898C27.8418 116.38 29.1234 116.516 30.2823 117.416C31.8229 118.698 32.2183 120.634 31.0594 122.311ZM29.3824 121.029C30.2823 119.748 30.2823 118.589 29.5052 117.934C28.728 117.28 27.4464 117.675 26.6693 118.971C25.7694 120.252 25.7694 121.411 26.5466 122.066C27.3237 122.706 28.4826 122.325 29.3824 121.029Z" fill="white"/>
<path d="M40.5884 121.028C39.5522 119.87 38.6523 119.488 37.3707 118.833L37.1117 118.711L35.4347 122.187C34.1531 124.887 33.635 125.923 33.376 126.959L31.4399 125.923C31.958 125.146 32.4761 123.987 33.8804 121.41C35.0393 118.97 35.5574 117.934 35.8165 117.034L41.3519 119.733L40.5747 121.015L40.5884 121.028Z" fill="white"/>
<path d="M56.2957 122.829L56.173 124.247C55.1368 123.606 54.3733 123.47 53.5962 123.347H53.3371L52.819 127.206C52.4373 130.164 52.3009 131.323 52.3009 132.359L50.1058 132.1C50.3649 131.2 50.4876 129.905 50.883 126.947L51.4011 123.088H51.142C50.2422 122.965 49.465 122.965 48.3062 123.347L48.4289 121.929L56.2821 122.829H56.2957Z" fill="white"/>
<path d="M65.9605 122.829C65.0606 124.247 64.6789 125.788 63.6427 128.365C62.3611 131.459 61.584 133 59.5252 133C58.7481 133 58.3663 132.741 58.3663 132.741V131.064C58.3663 131.064 59.0071 131.705 59.7843 131.705C60.4251 131.705 60.9432 131.323 61.3249 130.805L57.7119 125.011C57.3301 124.233 57.0711 123.974 56.2939 122.952H58.8708C59.1298 123.988 59.2525 124.37 60.1524 125.788L62.2111 129.005C62.3338 128.746 62.4702 128.365 62.5929 128.105C63.6291 125.27 63.8745 124.37 63.8745 122.829H65.9332H65.9605Z" fill="white"/>
<path d="M69.1795 124.765L69.9567 124.642L69.1795 127.601L71.1156 129.918L70.3384 130.041L67.8979 127.846L69.1795 124.751V124.765ZM71.3746 124.247L72.1518 124.124L71.3746 127.083L73.3107 129.4L72.5335 129.523L70.093 127.328L71.3746 124.233V124.247Z" fill="white"/>
<path d="M83.8628 127.723L81.545 128.623C81.1633 127.587 80.9042 127.205 79.609 125.787L76.255 122.051L76.1323 126.946C76.1323 128.745 76.1323 129.386 76.3913 130.422L74.7144 131.063C74.8371 129.904 74.8371 129.523 74.9734 127.328L75.3552 120.238L76.255 119.856L76.7731 119.733L81.7904 125.528C82.6903 126.564 83.072 126.809 83.8492 127.723H83.8628Z" fill="white"/>
<path d="M89.657 118.451C91.3339 121.287 90.4341 124.246 87.5982 125.923C86.1803 126.822 85.0214 127.082 85.0214 127.082L84.1215 125.541C84.1215 125.541 85.6622 126.182 87.2165 125.282C89.0162 124.123 89.4116 122.187 88.1163 119.869L87.5982 120.128C86.3166 120.905 85.4031 121.546 84.2442 122.569L83.4671 121.287C85.0078 120.646 85.9076 120.251 87.2028 119.487L87.5846 119.228C86.303 117.429 84.4897 116.788 82.8127 117.947C81.272 118.847 81.1357 120.387 81.1357 120.387L80.2358 119.228C80.2358 119.228 80.7539 118.069 82.5536 117.033C85.3895 115.234 88.089 115.752 89.6433 118.451H89.657Z" fill="white"/>
<path d="M93.393 109.303L94.2929 110.462C93.134 110.844 92.4932 111.239 91.8524 111.744L91.5933 112.003L94.0338 114.961C95.9698 117.279 96.7334 118.179 97.3878 118.82L95.7108 120.238C95.1927 119.338 94.4292 118.438 92.6159 116.12L90.1754 113.162L89.9163 113.284C89.2755 113.925 88.7574 114.443 88.1166 115.479L87.2168 114.321L93.393 109.303Z" fill="white"/>
<path d="M103.305 105.186C105.5 107.122 106.4 107.886 107.3 108.404L105.882 110.081C105.241 109.304 104.341 108.54 102.146 106.604L99.9508 104.668L102.909 113.558L101.491 115.098C100.851 114.321 100.074 113.68 98.0148 111.881C95.8197 109.945 94.9199 109.181 94.02 108.663L95.438 106.986C96.0788 107.763 96.9786 108.527 99.1737 110.463L101.369 112.399L98.4102 103.509L99.8281 101.969C100.469 102.746 101.246 103.387 103.305 105.186Z" fill="white"/>
<path d="M107.558 105.308L107.176 105.949L105.636 103.249L102.677 102.99L103.059 102.349L106.277 102.227L107.558 105.321V105.308ZM108.717 103.372L108.335 104.013L106.795 101.313L103.836 101.054L104.218 100.413L107.436 100.291L108.717 103.385V103.372Z" fill="white"/>
<path d="M4.64877 80.0709C7.2256 79.5528 8.38449 79.2937 9.28434 79.0347L9.54339 80.9707C8.64354 80.9707 7.60735 81.2297 5.03052 81.7478L1.67655 82.3886L2.45369 86.3834L5.80766 85.7426C8.38449 85.2245 9.42068 84.9655 10.3205 84.7064L10.8386 86.6425C9.93877 86.6425 8.77988 86.9015 6.20305 87.4196C3.76255 87.9377 2.84907 88.0604 2.08557 88.4558L0.544922 80.8616C1.32206 80.7389 2.34461 80.6026 4.6624 80.0845L4.64877 80.0709Z" fill="white"/>
<path d="M7.48509 71.564H9.02573V74.5226C9.02573 75.4224 9.14844 77.3584 9.14844 77.3584C8.24859 77.2357 7.21241 77.2357 4.51287 77.3584C2.07237 77.4811 1.03619 77.4811 0.259047 77.6175L0 72.0821H1.2816C0.899846 73.3637 0.899846 74.2771 0.899846 75.5587V75.8178L3.85843 75.6951C3.85843 74.5362 3.73573 73.8954 3.47668 72.8592H4.89462C4.63557 74.0181 4.63557 74.6589 4.63557 75.6951L8.11225 75.5724V75.0543C8.11225 73.7727 7.98955 72.7365 7.47145 71.5776L7.48509 71.564Z" fill="white"/>
<path d="M2.85057 63.8335C4.65026 63.9562 5.5501 65.2514 5.4274 67.8283V68.4691C7.10438 68.5918 8.12694 68.5918 9.04042 68.4691L8.91771 70.5278C8.01787 70.4051 6.98168 70.2688 4.28214 70.1461C1.84165 70.0233 0.928167 70.0233 0.0283203 70.0233L0.151027 66.9284C0.273733 64.8697 1.18721 63.8335 2.85057 63.8335ZM2.85057 65.7695C1.69167 65.6468 1.05087 66.2876 0.914533 67.4465V68.2237L4.65026 68.4827V67.9646C4.77296 66.5467 4.13216 65.7695 2.85057 65.7695Z" fill="white"/>
<path d="M8.38597 57.2628C10.063 57.6446 10.7038 59.0625 10.1857 61.5167L9.92661 62.5528L9.66757 64.3525C8.76772 64.0935 7.73153 63.8344 5.1547 63.3164C2.71421 62.7983 1.80073 62.6756 0.900879 62.5392L1.54168 59.3216C1.92343 57.2628 2.82328 56.363 4.11851 56.622C5.1547 56.8811 5.9182 57.6582 5.7955 59.0625C6.31359 57.5219 7.21344 57.1265 8.37233 57.2628H8.38597ZM2.07341 60.9986L5.03199 61.6394L5.1547 60.9986C5.41375 59.717 5.03199 59.0625 3.8731 58.8035C2.97325 58.6808 2.33245 59.0625 2.19611 60.2214L2.07341 60.9986ZM8.12692 59.1989C6.96803 58.9398 6.19089 59.717 5.93184 61.1349L5.80913 61.7757L9.16311 62.4165L9.28581 61.7757C9.54486 60.3578 9.16311 59.3352 8.12692 59.1989Z" fill="white"/>
<path d="M10.3218 47.228C8.12668 46.1918 7.22683 45.6874 6.46332 45.292L5.56348 47.0917C6.34062 47.3507 7.24046 47.7325 9.55825 48.7687C11.9987 49.9276 12.9122 50.4457 13.6757 50.8274L14.5756 49.0277C13.7984 48.7687 12.7759 48.3869 10.3218 47.228Z" fill="white"/>
<path d="M10.7028 50.4438C9.16217 49.803 8.00327 50.5665 7.22613 52.5026L6.84438 53.5387C5.30374 52.8979 4.40389 52.5026 3.62675 52.1208L2.84961 53.9205C3.74946 54.1795 4.6493 54.5613 7.22613 55.5975C9.54392 56.4973 10.4438 56.8791 11.0846 57.3972L11.7254 55.5975L11.8481 55.0794C12.8843 52.7616 12.3662 51.0846 10.6892 50.4438H10.7028ZM11.2209 54.8203L10.9619 55.2021L7.48518 53.7842L7.74423 53.1434C8.26232 51.9845 9.02583 51.7254 10.062 52.1072C11.3436 52.6253 11.739 53.5251 11.2209 54.8067V54.8203Z" fill="white"/>
<path d="M15.7343 38.5975C17.9293 40.1382 18.9519 40.7926 19.729 41.1744L18.5701 42.715C17.9293 42.0742 17.0295 41.5561 14.8344 40.0155L12.6393 38.5975L16.2524 46.1917L15.3525 47.8687C14.7117 47.2279 13.8119 46.5871 11.7395 45.2918C9.54441 43.7512 8.64457 43.2331 7.88106 42.8513L9.03995 41.1744C9.68075 41.8152 10.5806 42.3332 12.7757 43.8739L14.9708 45.2918L11.3577 37.6977L12.3939 36.157C12.912 36.6751 13.8119 37.1932 15.7479 38.5975H15.7343ZM6.72217 40.1382L7.62201 38.8566C7.62201 38.8566 8.6582 39.6337 9.299 38.7339C9.9398 37.834 8.78091 37.1932 8.78091 37.1932L9.68075 35.9116C9.68075 35.9116 11.0987 37.3296 9.9398 39.1293C8.52186 40.9289 6.72217 40.1654 6.72217 40.1654V40.1382Z" fill="white"/>
<path d="M25.6451 28.2892C27.7038 30.4843 27.3221 33.1839 25.127 35.2426C23.9681 36.2788 23.0682 36.7832 23.0682 36.7832L21.9093 35.5016C21.9093 35.5016 23.45 35.7607 24.6089 34.7245C26.0268 33.4429 26.0268 31.5069 24.4862 29.8299L24.1044 30.2116C23.0682 31.1115 22.4274 31.8886 21.5276 32.9112L20.6278 31.875C21.7866 31.0978 22.5638 30.457 23.5863 29.5572L23.9681 29.2982C22.4274 27.8802 20.8732 27.7575 19.4552 29.0391C18.2963 30.0753 18.2963 31.6159 18.2963 31.6159L17.3965 30.7161C17.3965 30.7161 17.6555 29.5572 19.0735 28.3983C21.2686 26.2032 23.8454 26.2032 25.6451 28.2756V28.2892Z" fill="white"/>
<path d="M35.6937 27.5129L33.635 28.6718C33.1169 27.8947 32.8578 27.6356 31.3172 26.6131L27.5814 24.0362L28.6176 28.4128C28.9994 29.9534 29.1357 30.4715 29.5175 31.3714L28.2359 32.2712C28.1132 31.235 27.9768 30.8533 27.5951 29.0536L26.3135 22.741L27.0906 22.2229L27.4724 21.9639L33.1441 25.9586C34.303 26.7358 34.8211 26.9948 35.721 27.4993L35.6937 27.5129Z" fill="white"/>
<path d="M40.7111 23.6549L41.3519 24.9365C41.3519 24.9365 39.1569 25.8363 38.6524 26.0954C38.1479 26.3544 36.0756 27.2543 36.0756 27.2543C35.8165 26.3544 35.4348 25.4546 34.2759 23.0004C33.2397 20.6827 32.8579 19.9055 32.3398 19.142L37.3572 16.8242L37.8753 17.9831C36.4573 18.1058 35.6802 18.3649 34.5213 18.883L34.3986 19.142L35.6802 21.9779C36.7164 21.4598 37.2208 21.2007 38.1207 20.5599L38.6388 21.8415C37.6026 22.1006 36.9618 22.3596 35.9392 22.7414L37.3572 25.959L37.7389 25.8363C39.0205 25.0592 39.934 24.5547 40.6975 23.6412L40.7111 23.6549Z" fill="white"/>
<path d="M41.1074 15.5426C41.2301 16.4424 41.4892 17.3423 42.2663 19.66C43.0435 22.2369 43.3025 23.2731 43.6843 24.0366L41.7482 24.6774C41.6255 23.7775 41.3665 22.7413 40.5893 20.1645C39.8122 17.8467 39.5531 16.8105 39.1714 16.047L41.1074 15.5289V15.5426ZM49.6014 22.6323L46.9019 23.2731L42.389 19.66L43.5479 17.3423C44.1887 16.0607 44.4478 15.4062 44.5841 14.5064L46.3838 13.9883C46.3838 13.9883 45.6067 15.1472 44.9659 16.4288L43.807 18.6239L45.743 20.1645C47.2836 21.2007 48.1835 21.9642 49.6014 22.605V22.6323Z" fill="white"/>
<path d="M53.5959 12.8291L53.855 14.1107C52.8188 13.8517 52.0553 13.8517 51.4145 13.988H51.1554L51.6735 17.4647C52.0553 20.1642 52.3143 21.2004 52.5734 22.1002L50.6374 22.482C50.6374 21.5822 50.5146 20.546 49.9966 17.8464L49.4785 14.3697H49.2194C48.4423 14.4925 47.8015 14.7515 46.9016 15.2696L46.6426 13.988L53.5959 12.8291Z" fill="white"/>
<path d="M61.4488 15.0241C61.4488 16.9601 60.2899 17.9827 57.7131 17.9827H57.0723C57.0723 19.7824 57.195 20.6822 57.3313 21.5957L55.3953 21.7184C55.518 20.8186 55.518 19.6597 55.3953 16.9465C55.2726 14.506 55.2726 13.4698 55.1362 12.57L58.2312 12.4473C60.2899 12.57 61.4488 13.3471 61.4488 15.0241ZM59.6491 15.1468C59.6491 13.9879 59.0083 13.3471 57.7131 13.3471H56.9359L57.0586 17.0828H57.5767C59.1174 17.2055 59.7718 16.442 59.6355 15.1468H59.6491Z" fill="white"/>
<path d="M61.9665 16.9604C62.3483 14.0018 64.407 12.4476 67.3793 12.8429C70.0788 13.2247 71.6331 15.1607 71.2377 17.9966C70.8559 20.9552 68.7972 22.5095 65.825 22.1141C62.9891 21.7323 61.5712 19.7963 61.9665 16.9604ZM69.179 17.9966C69.438 15.5561 68.6609 14.0018 66.9839 13.7428C65.3069 13.4837 64.148 14.779 63.8889 17.0968C63.6299 19.5373 64.407 21.0915 66.084 21.3506C67.6247 21.6096 68.9199 20.3144 69.179 17.9966Z" fill="white"/>
<path d="M78.7091 15.7995L78.3273 17.0811C77.4275 16.4403 76.7867 16.1813 76.1323 15.9222L75.8732 15.7995L74.9734 19.1535C74.1962 21.7303 73.9372 22.7665 73.8145 23.6663L71.8784 23.1482C72.2602 22.3711 72.5192 21.3486 73.2964 18.6354L74.1962 15.2814L73.9372 15.1587C73.16 14.8997 72.5192 14.8997 71.3604 15.036L71.7421 13.7544L78.6955 15.8131L78.7091 15.7995Z" fill="white"/>
<path d="M82.0631 25.332L81.545 26.75C81.545 26.75 79.609 25.8501 78.9682 25.5911C78.4501 25.332 76.1323 24.4322 76.1323 24.4322C76.5141 23.655 77.0322 22.6325 78.0684 20.1784C78.9682 17.8606 79.35 16.9607 79.609 16.1836L84.6263 18.3787L84.1082 19.6603C83.072 18.7604 82.3085 18.3787 81.1496 17.8606L80.8906 17.7379L79.8544 20.4374C80.8906 20.8192 81.5314 21.0782 82.554 21.3373L82.0359 22.6189C81.136 21.9781 80.4952 21.719 79.5954 21.2009L78.3138 24.4186L78.6955 24.5413C79.8544 25.1821 80.8906 25.4411 82.0495 25.3184L82.0631 25.332Z" fill="white"/>
<path d="M87.9811 30.4853L85.9224 29.2037C86.1815 28.3038 86.0451 27.9221 86.0451 26.3678V25.0862L85.0089 25.6043C83.7273 26.2451 83.3319 26.6405 82.6911 27.2813L81.0142 26.3814C81.0142 26.3814 82.0503 25.9997 83.2092 25.4816L86.0451 24.2L85.9224 20.9823C85.9224 19.7007 85.6634 18.6646 85.6634 18.6646L87.7221 19.8234C87.4631 20.7233 87.4631 21.2414 87.5994 22.6593V23.6955L88.3765 23.3138C89.6581 22.673 90.1762 22.2776 90.817 21.6368L92.235 22.5366C92.235 22.5366 91.3351 22.9184 90.0399 23.4365L87.4631 24.5954L87.5858 28.072C87.7085 29.6127 87.9675 30.5125 87.9675 30.5125L87.9811 30.4853Z" fill="white"/>
<path d="M96.8697 31.7667C95.1928 33.8254 94.4293 34.7253 94.0339 35.5024L92.6159 34.2208C93.2567 33.58 93.8975 32.9392 95.3155 31.0032L92.0978 28.4264C90.5572 30.3624 90.0391 31.1259 89.6573 31.7803L88.1167 30.6214C88.7575 29.9806 89.3983 29.2035 91.0753 27.0084C92.6159 25.0724 93.134 24.3089 93.6521 23.5317L95.1928 24.8133C94.6747 25.3314 94.0339 26.0949 92.7523 27.6492L95.9699 30.226C97.2515 28.5491 97.7696 27.9083 98.2877 27.1311L99.8283 28.4127C99.0512 29.0535 98.4104 29.8307 96.8697 31.7667Z" fill="white"/>
<path d="M103.823 39.3608C101.764 41.1605 100.864 41.9376 100.346 42.5784L99.1872 41.0378C99.9643 40.5197 100.728 39.8789 102.8 38.0792L104.736 36.4022L96.4877 37.9429L95.2061 36.5249C95.9832 36.0068 96.7467 35.366 98.6827 33.8254C100.741 32.0257 101.519 31.3849 102.037 30.7305L103.318 32.2711C102.541 32.7892 101.778 33.43 99.7053 35.2297L97.7692 36.9067L106.018 35.366L107.177 36.784C106.4 37.1657 105.636 37.8202 103.823 39.3608Z" fill="white"/>
<path d="M108.077 46.1909C105.759 47.6088 104.859 48.1269 104.082 48.7677L103.182 46.968C103.959 46.5863 104.723 46.1909 106.536 45.032C106.154 44.7729 105.377 44.1321 104.736 43.2323C103.837 41.6916 104.218 40.6554 105.514 39.8783C106.672 39.2375 107.45 38.7194 108.09 38.0786L109.127 39.7556C108.227 40.1374 107.327 40.6554 106.55 41.1735C105.65 41.6916 105.391 42.3324 105.909 43.2323C106.291 43.8731 106.809 44.3912 107.191 44.6502C109.249 43.3686 110.026 42.8505 110.667 42.3324L111.703 44.0094C110.926 44.3912 110.163 44.9093 108.09 46.2045L108.077 46.1909Z" fill="white"/>
<path d="M108.337 54.8221L107.055 55.4629C107.055 55.4629 106.155 53.2678 105.896 52.627C105.637 51.9862 104.737 50.0502 104.737 50.0502C105.637 49.7911 106.537 49.4094 108.991 48.2505C111.186 47.2143 112.086 46.8325 112.85 46.3145L115.045 51.4681L113.886 51.9862C113.763 50.5683 113.504 49.7911 112.986 48.6322L112.863 48.3732L110.164 49.6548C110.682 50.691 110.941 51.1954 111.582 52.0953L110.3 52.6134C110.041 51.4545 109.918 50.9364 109.4 49.9138L106.305 51.3318L106.428 51.7135C106.946 52.9951 107.464 54.0313 108.364 54.8085L108.337 54.8221Z" fill="white"/>
<path d="M111.295 53.7867C114.254 53.0096 116.449 54.6866 117.09 57.5225C117.472 58.9404 117.349 59.963 117.349 59.963L115.672 60.3447C115.672 60.3447 116.572 59.1858 116.19 57.6452C115.672 55.7091 113.995 54.9456 111.677 55.5864C109.482 56.1045 108.323 57.6452 108.841 59.5812C109.223 61.2582 110.259 61.7763 110.259 61.7763L109.223 62.158C109.223 62.158 108.323 61.2582 107.941 59.1995C107.301 56.759 108.459 54.4275 111.295 53.7867Z" fill="white"/>
<path d="M118.125 63.4533C117.226 63.4533 116.326 63.576 113.872 63.835C111.172 64.0941 110.136 64.3531 109.359 64.4758L108.977 62.4171C109.877 62.4171 111.036 62.2944 113.749 62.0353C116.189 61.7763 117.103 61.6536 118.003 61.3945L118.125 63.4533ZM109.877 70.543L109.754 67.8434L114.008 63.985L115.944 65.5256C117.103 66.4255 117.621 66.8072 118.521 67.0663L118.78 69.0023C118.78 69.0023 117.744 67.9661 116.585 67.2026L114.649 65.5256L112.849 67.2026C111.431 68.6206 110.654 69.3977 109.891 70.5566L109.877 70.543Z" fill="white"/>
<path d="M114.39 78.1366C111.69 78.0139 110.532 78.0139 109.754 78.1366L109.877 76.0779C110.777 76.2006 111.813 76.3369 114.513 76.3369L117.09 76.4596L110 71.9468V70.0107C110.9 70.1334 111.936 70.2698 114.376 70.2698C117.076 70.3925 118.112 70.3925 119.012 70.2698V72.3285C118.112 72.2058 117.076 72.0695 114.376 72.0695L111.799 71.9468L118.889 76.4596V78.3957C117.73 78.273 116.83 78.273 114.376 78.1366H114.39Z" fill="white"/>
<path d="M112.714 87.4077C110.137 86.8896 108.978 86.6305 108.079 86.6305L108.597 84.6945C109.497 84.9536 110.533 85.2126 113.11 85.7307L115.686 86.2488L109.374 80.7134L109.633 78.7773C110.41 79.0364 111.433 79.2954 113.887 79.6772C116.464 80.1953 117.622 80.318 118.4 80.4543L118.018 82.3904C117.118 82.1313 116.082 81.8723 113.505 81.3542L110.928 80.8361L117.241 86.3715L116.859 88.1712C116.082 88.0485 115.182 87.7894 112.741 87.394L112.714 87.4077ZM120.445 82.254L120.186 83.7947C120.186 83.7947 118.904 83.5356 118.768 84.5718C118.509 85.608 119.927 85.8534 119.927 85.8534L119.668 87.394C119.668 87.394 117.732 86.7533 118.127 84.4355C118.386 82.2404 120.445 82.2404 120.445 82.2404V82.254Z" fill="white"/>
<path d="M158.076 64.4997L156.784 65.7915L174.88 83.8871L176.172 82.5953L158.076 64.4997Z" fill="white"/>
<path d="M156.776 82.6046L158.067 83.8965L176.163 65.8009L174.871 64.509L156.776 82.6046Z" fill="white"/>
</svg>
