<svg width="432" height="291" viewBox="0 0 432 291" fill="none" xmlns="http://www.w3.org/2000/svg">
<path d="M370.973 73.2947C358.55 51.6244 336.122 37.6187 312.376 31.2696C283.962 23.6748 253.482 25.4513 224.615 29.3204C194.159 33.3978 164.162 41.191 135.604 52.5246C111.125 62.2424 86.5449 75.4772 70.3579 96.8813C55.9722 115.908 48.955 142.384 57.6454 165.281C66.4103 188.382 89.4039 201.782 111.686 209.428C138.043 218.467 166.246 222.125 194.03 222.434C222.453 222.749 250.819 219.541 278.76 214.487C292.906 211.927 307.038 209.029 320.963 205.419C334.888 201.808 348.944 197.21 361.856 190.488C383.404 179.268 402.515 160.974 409.523 137.157C412.887 125.731 413.014 113.581 409.663 102.133C406.313 90.6857 399.737 79.9415 391.436 71.1424C373.268 51.8842 348.086 42.5019 322.298 38.9119C308.505 36.9907 294.546 36.594 280.635 36.7359C265.202 36.8957 249.763 37.6035 234.374 38.7937C202.928 41.2229 171.645 45.7504 140.802 52.3392C115.278 57.7954 87.992 64.0811 67.4195 81.1318C47.9675 97.263 37.7698 123.022 41.6933 148.078C43.6736 160.745 49.1848 172.829 57.2788 182.757C65.2507 192.529 75.7257 199.847 87.3762 204.594C111.616 214.475 138.918 213.935 164.619 212.924C196.159 211.684 227.598 207.928 258.541 201.69C266.187 200.149 273.806 198.456 281.388 196.614C288.299 194.932 295.155 192.869 302.173 191.671C308.713 190.555 315.589 190.348 321.805 193.011C328.293 195.795 333.376 201.305 338.472 206.016C349.72 216.414 360.964 226.814 372.212 237.213C373.077 238.012 375.046 237.571 374.622 236.092C369.718 218.992 364.814 201.897 359.91 184.797C359.428 183.111 356.707 183.565 357.197 185.266C362.102 202.367 367.005 219.462 371.909 236.562L374.319 235.441C362.984 224.963 351.648 214.479 340.313 204C335.437 199.492 330.67 194.513 324.737 191.387C319.284 188.519 313.157 187.822 307.08 188.288C300.677 188.776 294.452 190.484 288.257 192.076C280.815 193.983 273.343 195.751 265.834 197.369C250.934 200.579 235.912 203.212 220.807 205.269C205.588 207.34 190.282 208.817 174.945 209.697C160.882 210.507 146.729 210.992 132.652 210.404C108.174 209.377 82.1253 204.247 64.1746 186.28C45.9617 168.056 39.1037 140.896 46.8619 116.313C50.6459 104.312 57.5872 93.5385 66.975 85.1491C76.3673 76.7533 87.6801 70.866 99.4126 66.4353C111.722 61.7874 124.555 58.7122 137.388 55.8937C152.439 52.5854 167.597 49.7718 182.831 47.4587C213.292 42.828 244.061 40.17 274.866 39.5596C301.589 39.0306 329.203 39.966 354.398 49.7867C377.155 58.6566 397.653 76.0662 405.955 99.5324C409.914 110.718 410.464 122.902 407.445 134.381C404.493 145.607 398.566 155.848 391.007 164.602C373.152 185.279 346.976 195.781 321.14 202.536C294.209 209.581 266.48 214.593 238.797 217.487C211.114 220.381 183.399 220.735 155.959 216.896C142.382 214.998 128.905 212.096 115.848 207.904C104.477 204.257 93.337 199.455 83.5129 192.605C73.8679 185.886 65.6285 177.054 60.9717 166.161C56.2487 155.113 55.6108 142.744 57.8868 131.037C62.8223 105.609 80.667 85.7762 102.029 72.2222C113.136 65.1761 125.135 59.6054 137.353 54.7836C151.328 49.2671 165.648 44.6117 180.192 40.8329C209.071 33.3281 239.198 28.8279 269.075 28.8637C295.471 28.8992 322.598 33.608 344.631 48.9436C354.28 55.6563 362.627 64.2355 368.487 74.4617C369.36 75.985 371.858 74.827 370.977 73.2884L370.973 73.2947Z" fill="#E84749"/>
<path d="M159.717 96.5622C156.598 96.9355 153.573 97.3349 150.644 97.7602L152.999 113.242L145.584 114.37L143.229 98.888C140.286 99.3559 137.29 99.8724 134.24 100.437L133.293 94.209L158.77 90.3338L159.717 96.5622ZM175.43 102.244L165.761 103.715C166.052 104.561 166.546 105.214 167.243 105.674C167.957 106.112 168.887 106.243 170.034 106.069C170.864 105.943 171.621 105.666 172.305 105.238C172.985 104.791 173.498 104.237 173.843 103.578C175.267 104.029 177.133 104.463 179.442 104.881C179.04 106.358 178.091 107.635 176.596 108.712C175.118 109.766 173.084 110.491 170.493 110.885C167.132 111.396 164.523 111.004 162.667 109.708C160.828 108.39 159.716 106.465 159.331 103.934C158.955 101.462 159.451 99.3338 160.818 97.5479C162.185 95.762 164.559 94.6119 167.94 94.0977C169.957 93.7909 171.758 93.8609 173.343 94.3076C174.928 94.7543 176.208 95.5205 177.182 96.6064C178.154 97.6724 178.757 98.9766 178.991 100.519C179.069 101.033 179.108 101.421 179.108 101.685L175.43 102.244ZM169.036 98.513C168.048 98.6634 167.266 98.9745 166.69 99.4464C166.114 99.9183 165.748 100.5 165.59 101.192L172.589 100.127C172.256 99.5304 171.794 99.0848 171.203 98.7904C170.609 98.4761 169.887 98.3837 169.036 98.513ZM179.901 92.6121L199.06 89.6979L201.542 106.01L195.046 106.998L193.413 96.2617L187.244 97.2L188.877 107.937L182.382 108.925L179.901 92.6121ZM218.441 95.7017L208.772 97.1724C209.063 98.0183 209.557 98.6715 210.254 99.1319C210.968 99.5695 211.898 99.7011 213.045 99.5267C213.876 99.4004 214.632 99.1234 215.316 98.6957C215.996 98.2483 216.509 97.695 216.854 97.0356C218.278 97.4866 220.144 97.9209 222.453 98.3384C222.051 99.8157 221.102 101.093 219.607 102.17C218.129 103.224 216.095 103.948 213.504 104.342C210.143 104.854 207.534 104.461 205.679 103.166C203.839 101.847 202.727 99.9227 202.342 97.3918C201.966 94.9203 202.462 92.7915 203.829 91.0057C205.196 89.2198 207.57 88.0697 210.951 87.5554C212.968 87.2487 214.769 87.3186 216.354 87.7653C217.939 88.212 219.219 88.9783 220.193 90.0641C221.165 91.1302 221.768 92.4344 222.002 93.9766C222.081 94.4907 222.119 94.8793 222.119 95.1423L218.441 95.7017ZM212.048 91.9708C211.059 92.1211 210.277 92.4323 209.701 92.9042C209.126 93.3761 208.759 93.9579 208.601 94.6495L215.601 93.5848C215.267 92.9882 214.805 92.5426 214.214 92.2482C213.62 91.9339 212.898 91.8414 212.048 91.9708ZM235.823 83.7722C237.109 83.5768 238.321 83.7666 239.46 84.3418C240.6 84.917 241.552 85.7937 242.318 86.9719C243.081 88.1304 243.577 89.461 243.805 90.9637C244.031 92.4466 243.958 93.8941 243.586 95.3061C243.211 96.6983 242.561 97.8794 241.637 98.8495C240.729 99.7968 239.612 100.371 238.288 100.573C236.745 100.807 235.373 100.692 234.169 100.228C232.982 99.741 232.02 98.8658 231.281 97.6025C231.453 98.7295 231.768 100.533 232.226 103.012C232.672 105.412 232.97 107.107 233.12 108.095L226.417 109.115C225.976 105.419 225.451 101.564 224.84 97.5505C224.23 93.5367 223.586 89.6999 222.907 86.0403L228.602 85.1741L230.026 88.7506C230.369 87.2823 231.046 86.1476 232.057 85.3465C233.065 84.5256 234.321 84.0008 235.823 83.7722ZM234.391 95.7033C235.281 95.5679 235.98 95.1783 236.489 94.5345C237.015 93.8678 237.209 93.0798 237.07 92.1702C236.917 91.1618 236.515 90.3834 235.865 89.8348C235.216 89.2863 234.416 89.0843 233.467 89.2286C232.38 89.394 231.6 89.7858 231.127 90.4038C230.652 91.0021 230.507 91.9142 230.694 93.1401C230.799 93.8322 231.066 94.3884 231.494 94.8088C231.919 95.2094 232.395 95.4809 232.922 95.6232C233.447 95.7458 233.936 95.7724 234.391 95.7033ZM255.53 84.7803C258.476 84.3322 260.621 84.6027 261.965 85.5918C263.306 86.5612 264.133 88.074 264.446 90.1304C264.738 92.0483 264.38 93.62 263.373 94.8454C262.383 96.048 260.404 96.8748 257.438 97.326L253.494 97.926L253.498 97.9556L247.151 98.921C246.907 96.6519 246.546 93.9455 246.068 90.8016C245.59 87.6578 245.13 84.9663 244.688 82.7273L251.035 81.7619L251.586 85.3803L255.53 84.7803ZM254.942 92.8809C256.346 92.6674 257.308 92.4097 257.828 92.108C258.349 91.8063 258.561 91.3391 258.465 90.7064C258.368 90.0737 258.017 89.6922 257.411 89.5619C256.801 89.4118 255.814 89.4406 254.45 89.6481L252.289 90.0071L252.777 93.2102L254.942 92.8809ZM289.751 81.5778C286.774 81.9499 284.611 82.2282 283.263 82.413L284.901 93.1792L278.613 94.1355L276.976 83.3694C275.654 83.5906 273.516 83.9664 270.562 84.4966L269.714 78.9207L288.903 76.002L289.751 81.5778ZM300.945 77.8724C303.891 77.4243 306.037 77.6948 307.381 78.6839C308.722 79.6533 309.548 81.1661 309.861 83.2225C310.153 85.1404 309.795 86.7121 308.788 87.9375C307.798 89.1401 305.82 89.967 302.854 90.4181L298.909 91.0181L298.914 91.0478L292.567 92.0132C292.323 89.7441 291.961 87.0376 291.483 83.8937C291.005 80.7499 290.545 78.0585 290.103 75.8194L296.45 74.854L297.001 78.4724L300.945 77.8724ZM315.966 71.8856C316.204 74.1152 316.563 76.8118 317.045 79.9754C317.523 83.1192 317.981 85.8008 318.42 88.02L311.925 89.008C311.38 85.0247 310.901 81.6786 310.489 78.9698C310.077 76.2609 309.737 74.2288 309.471 72.8736L315.966 71.8856ZM300.357 85.973C301.761 85.7595 302.723 85.5019 303.243 85.2001C303.764 84.8984 303.976 84.4312 303.88 83.7985C303.784 83.1658 303.432 82.7843 302.826 82.654C302.216 82.5039 301.229 82.5327 299.865 82.7402L297.704 83.0992L298.192 86.3023L300.357 85.973ZM87.0282 158.487C87.2212 159.489 87.6608 160.252 88.3473 160.775C89.0534 161.294 89.9997 161.464 91.1861 161.284C91.8386 161.184 92.4038 160.977 92.8818 160.661C93.3568 160.326 93.7742 159.878 94.134 159.318C95.9139 159.715 97.967 159.979 100.293 160.111C99.8723 161.732 98.9455 163.087 97.5128 164.175C96.0999 165.26 94.1576 165.99 91.686 166.366C88.384 166.868 85.8248 166.469 84.0084 165.167C82.192 163.865 81.0929 161.959 80.7109 159.448C80.329 156.937 80.8116 154.79 82.1588 153.007C83.506 151.224 85.8307 150.081 89.1327 149.579C91.6042 149.203 93.6758 149.323 95.3474 149.939C97.0388 150.551 98.3265 151.569 99.2106 152.993C97.5079 153.636 95.6263 154.499 93.5656 155.581C93.0554 155.153 92.5252 154.859 91.975 154.7C91.4219 154.521 90.819 154.481 90.1665 154.581C88.9802 154.761 88.1271 155.204 87.6074 155.911C87.1075 156.614 86.9144 157.473 87.0282 158.487ZM121.471 156.495C121.574 157.167 121.725 157.63 121.925 157.882C122.125 158.135 122.472 158.285 122.964 158.331L123.27 161.137C122.652 161.332 122.109 161.486 121.641 161.598C121.192 161.706 120.582 161.819 119.811 161.937C118.11 162.195 116.926 161.991 116.258 161.324C115.587 160.637 115.162 159.7 114.981 158.514L114.868 157.772C114.542 159.481 113.885 160.815 112.898 161.774C111.93 162.731 110.597 163.338 108.896 163.597C106.919 163.897 105.366 163.729 104.237 163.092C103.128 162.451 102.455 161.35 102.217 159.788C102.022 158.502 102.294 157.429 103.033 156.568C103.772 155.708 105.01 155.003 106.747 154.456C105.082 153.617 103.438 152.916 101.815 152.354C102.773 150.67 103.954 149.328 105.359 148.325C106.762 147.302 108.55 146.626 110.725 146.295C113.77 145.832 116.125 146.151 117.79 147.253C119.471 148.333 120.519 150.237 120.934 152.966L121.471 156.495ZM112.142 151.42C111.134 151.573 110.269 151.877 109.549 152.33C108.829 152.784 108.214 153.393 107.703 154.159C108.869 153.84 110.341 153.545 112.121 153.274C112.852 153.163 113.353 152.996 113.622 152.773C113.892 152.55 114.006 152.3 113.963 152.023C113.927 151.786 113.749 151.611 113.428 151.498C113.105 151.365 112.676 151.339 112.142 151.42ZM110.029 158.478C111.137 158.31 112.104 157.95 112.93 157.4C113.754 156.829 114.281 156.172 114.512 155.429L114.395 154.658C113.956 154.968 113.461 155.235 112.908 155.461C112.353 155.667 111.679 155.891 110.886 156.133L109.846 156.473C108.772 156.859 108.275 157.319 108.356 157.853C108.444 158.426 109.001 158.634 110.029 158.478ZM145.359 141.33L148.949 157.353L143.195 158.228L141.075 146.685L140.585 158.625L133.556 159.694L129.531 148.593L130.946 160.091L125.192 160.966L123.856 144.601L132.635 143.266L136.174 153.561L136.283 142.711L145.359 141.33ZM159.696 142.852C162.643 142.404 164.788 142.674 166.132 143.663C167.473 144.633 168.3 146.145 168.612 148.202C168.904 150.12 168.546 151.691 167.539 152.917C166.549 154.119 164.571 154.946 161.605 155.397L157.66 155.997L157.665 156.027L151.318 156.992C151.074 154.723 150.713 152.017 150.234 148.873C149.756 145.729 149.296 143.038 148.854 140.799L155.201 139.833L155.752 143.452L159.696 142.852ZM174.717 136.865C174.955 139.094 175.315 141.791 175.796 144.955C176.274 148.098 176.732 150.78 177.171 152.999L170.676 153.987C170.131 150.004 169.652 146.658 169.24 143.949C168.828 141.24 168.489 139.208 168.222 137.853L174.717 136.865ZM159.108 150.952C160.512 150.739 161.474 150.481 161.994 150.179C162.515 149.878 162.727 149.41 162.631 148.778C162.535 148.145 162.183 147.764 161.577 147.633C160.967 147.483 159.98 147.512 158.616 147.719L156.456 148.078L156.943 151.282L159.108 150.952ZM195.661 133.679C195.998 136.561 196.342 139.159 196.694 141.472C197.04 143.746 197.483 146.329 198.024 149.22L191.944 150.145L190.71 139.834L187.733 150.786L179.458 152.045C179.18 149.417 178.845 146.817 178.454 144.247C178.057 141.637 177.604 139.056 177.094 136.503L182.937 135.615L184.242 146.189L187.178 134.969L195.661 133.679ZM185.972 134.425C185.043 134.566 184.151 134.489 183.297 134.194C182.463 133.896 181.76 133.396 181.188 132.694C180.616 131.992 180.252 131.127 180.095 130.099L183.031 129.653C183.149 130.424 183.434 130.967 183.886 131.283C184.356 131.575 184.907 131.674 185.539 131.577C186.172 131.481 186.659 131.225 187 130.809C187.359 130.37 187.479 129.765 187.362 128.994L190.298 128.547C190.454 129.575 190.364 130.51 190.026 131.35C189.689 132.19 189.156 132.878 188.428 133.414C187.72 133.946 186.902 134.283 185.972 134.425ZM211.225 139.596C211.418 140.598 211.857 141.361 212.544 141.884C213.25 142.403 214.196 142.573 215.383 142.393C216.035 142.293 216.6 142.086 217.078 141.771C217.553 141.435 217.971 140.987 218.331 140.427C220.11 140.824 222.164 141.088 224.49 141.22C224.069 142.842 223.142 144.196 221.709 145.284C220.296 146.369 218.354 147.099 215.883 147.475C212.581 147.977 210.021 147.578 208.205 146.276C206.389 144.974 205.289 143.068 204.907 140.557C204.525 138.046 205.008 135.899 206.355 134.116C207.703 132.333 210.027 131.191 213.329 130.688C215.801 130.312 217.872 130.432 219.544 131.048C221.235 131.66 222.523 132.678 223.407 134.102C221.704 134.745 219.823 135.608 217.762 136.69C217.252 136.262 216.722 135.968 216.172 135.809C215.618 135.63 215.016 135.59 214.363 135.69C213.177 135.87 212.324 136.313 211.804 137.02C211.304 137.723 211.111 138.582 211.225 139.596ZM243.793 132.063C240.815 132.435 238.653 132.713 237.305 132.898L238.943 143.664L232.655 144.621L231.017 133.854C229.696 134.076 227.558 134.451 224.604 134.982L223.756 129.406L242.945 126.487L243.793 132.063ZM262.712 123.48C263.049 126.362 263.393 128.96 263.745 131.274C264.091 133.547 264.535 136.13 265.076 139.022L258.995 139.946L257.761 129.635L254.784 140.587L246.509 141.846C246.231 139.218 245.896 136.618 245.505 134.048C245.108 131.438 244.655 128.857 244.145 126.304L249.988 125.416L251.293 135.99L254.229 124.771L262.712 123.48ZM286.049 136.651L279.554 137.639L277.921 126.902L273.709 127.543L273.819 128.467C273.944 129.419 274.032 130.265 274.084 131.006C274.153 131.724 274.171 132.51 274.139 133.364C274.018 137.085 271.554 139.311 266.75 140.042L266.032 135.326C266.944 135.066 267.533 134.683 267.8 134.177C268.064 133.651 268.12 132.894 267.97 131.906L266.599 122.889L283.568 120.338L286.049 136.651ZM296.782 122C299.728 121.552 301.873 121.823 303.217 122.812C304.558 123.781 305.385 125.294 305.698 127.35C305.989 129.268 305.632 130.84 304.625 132.065C303.634 133.268 301.656 134.095 298.69 134.546L294.745 135.146L294.75 135.176L288.403 136.141C288.159 133.872 287.798 131.165 287.32 128.022C286.841 124.878 286.382 122.186 285.94 119.947L292.287 118.982L292.837 122.6L296.782 122ZM296.193 130.101C297.597 129.887 298.559 129.63 299.08 129.328C299.6 129.026 299.813 128.559 299.716 127.926C299.62 127.294 299.269 126.912 298.662 126.782C298.053 126.632 297.066 126.661 295.702 126.868L293.541 127.227L294.028 130.43L296.193 130.101ZM324.9 114.021C325.258 117.042 325.619 119.748 325.983 122.141C326.347 124.533 326.807 127.225 327.363 130.215L320.927 131.194L320.106 125.796L314.293 126.68L315.114 132.078L308.678 133.057C308.434 130.788 308.073 128.082 307.594 124.938C307.116 121.794 306.656 119.102 306.214 116.863L312.65 115.884L313.471 121.282L319.285 120.398L318.464 115L324.9 114.021ZM338.113 115.714C341.059 115.265 343.204 115.536 344.548 116.525C345.889 117.494 346.716 119.007 347.029 121.064C347.321 122.982 346.963 124.553 345.956 125.779C344.965 126.981 342.987 127.808 340.021 128.259L336.077 128.859L336.081 128.889L329.734 129.854C329.49 127.585 329.129 124.879 328.651 121.735C328.173 118.591 327.713 115.9 327.271 113.661L333.618 112.695L334.168 116.314L338.113 115.714ZM353.134 109.727C353.372 111.956 353.731 114.653 354.212 117.817C354.691 120.96 355.149 123.642 355.588 125.861L349.092 126.849C348.547 122.866 348.069 119.52 347.657 116.811C347.245 114.102 346.905 112.07 346.638 110.715L353.134 109.727ZM337.525 123.814C338.928 123.601 339.891 123.343 340.411 123.041C340.932 122.74 341.144 122.272 341.048 121.64C340.951 121.007 340.6 120.625 339.994 120.495C339.384 120.345 338.397 120.374 337.033 120.581L334.872 120.94L335.359 124.144L337.525 123.814ZM374.077 106.541C374.414 109.423 374.759 112.021 375.111 114.334C375.457 116.608 375.9 119.191 376.441 122.082L370.361 123.007L369.126 112.696L366.149 123.648L357.875 124.906C357.596 122.278 357.262 119.679 356.871 117.109C356.474 114.499 356.02 111.918 355.511 109.365L361.354 108.476L362.658 119.05L365.595 107.831L374.077 106.541ZM364.389 107.286C363.46 107.428 362.568 107.351 361.714 107.056C360.88 106.758 360.177 106.258 359.605 105.556C359.032 104.854 358.668 103.989 358.512 102.961L361.448 102.514C361.565 103.286 361.85 103.829 362.303 104.144C362.772 104.437 363.323 104.535 363.956 104.439C364.589 104.343 365.076 104.087 365.417 103.671C365.775 103.232 365.896 102.627 365.778 101.856L368.714 101.409C368.871 102.437 368.78 103.372 368.443 104.212C368.105 105.052 367.573 105.74 366.845 106.276C366.137 106.808 365.318 107.145 364.389 107.286ZM382.484 98.1616C382.686 99.4864 383.023 102.035 383.495 105.807C383.546 106.406 383.593 106.844 383.635 107.121C383.663 109.969 383.786 112.438 384.003 114.529L378.516 115.364C378.101 113.303 377.484 110.908 376.665 108.181L376.437 106.88C375.855 103.853 375.409 101.322 375.099 99.2849L382.484 98.1616ZM385.826 121.929L378.946 122.976L378.143 117.697L385.023 116.65L385.826 121.929Z" fill="white"/>
<path d="M44.905 52.3991L60.1339 79.4997L80.5908 56.0608L72.1878 85.9936L103.209 83.9048L76.1086 99.1337L99.5405 119.567L69.5913 111.195L71.7035 142.209L56.4746 115.108L36.0341 138.517L44.4137 108.591L13.3992 110.703L40.4929 95.4511L17.0843 75.0106L47.0171 83.4136L44.905 52.3991Z" fill="black"/>
</svg>
