<svg width="69" height="69" viewBox="0 0 69 69" fill="none" xmlns="http://www.w3.org/2000/svg">
<path d="M28.2428 5.70092C29.7491 -0.96768 39.2509 -0.96768 40.7572 5.70092C41.7335 10.0229 46.6931 12.0772 50.4395 9.71146C56.2201 6.06119 62.9388 12.7799 59.2885 18.5605C56.9228 22.3069 58.9771 27.2665 63.2991 28.2428C69.9677 29.7491 69.9677 39.2509 63.2991 40.7572C58.9771 41.7335 56.9228 46.6931 59.2885 50.4395C62.9388 56.2201 56.2201 62.9388 50.4395 59.2885C46.6931 56.9228 41.7335 58.9771 40.7572 63.2991C39.2509 69.9677 29.7491 69.9677 28.2428 63.2991C27.2665 58.9771 22.3069 56.9228 18.5605 59.2885C12.7799 62.9388 6.06119 56.2201 9.71146 50.4395C12.0772 46.6931 10.0229 41.7335 5.70092 40.7572C-0.96768 39.2509 -0.96768 29.7491 5.70092 28.2428C10.0229 27.2665 12.0772 22.3069 9.71146 18.5605C6.06119 12.7799 12.7799 6.06119 18.5605 9.71146C22.3069 12.0772 27.2665 10.0229 28.2428 5.70092Z" fill="#FC4444"/>
</svg>
