<svg width="172" height="26" viewBox="0 0 172 26" fill="none" xmlns="http://www.w3.org/2000/svg">
<path d="M13.9562 6.53061C14.8302 7.15502 15.5133 7.9998 15.998 9.06496C16.4828 10.1301 16.7325 11.3055 16.7325 12.5837C16.7325 13.8619 16.4901 15.0299 15.998 16.1538C15.5133 17.2704 14.8229 18.1739 13.9415 18.8498C13.0602 19.5256 12.054 19.8708 10.9303 19.8708C9.62292 19.8708 8.49919 19.599 7.56643 19.0481C6.63366 18.5045 5.94327 17.6597 5.4879 16.5137C5.4879 17.4687 5.52463 19.0114 5.59073 21.127C5.65683 23.1765 5.69355 24.6237 5.69355 25.4611H-0.00585938C0.096965 22.3317 0.148382 19.0628 0.148382 15.6543C0.148382 12.2458 0.096965 8.97681 -0.00585938 5.84744H4.83423L5.56869 8.99885C6.03875 7.8235 6.74383 6.96402 7.68394 6.41308C8.62405 5.86948 9.73308 5.59033 11.011 5.59033C12.1054 5.59033 13.0896 5.89886 13.9636 6.52327L13.9562 6.53061ZM10.2105 14.6111C10.7246 14.1337 10.9817 13.5093 10.9817 12.7306C10.9817 11.8711 10.7466 11.1732 10.2766 10.637C9.80653 10.1007 9.16755 9.82894 8.35964 9.82894C7.43423 9.82894 6.73648 10.0493 6.26643 10.4974C5.79637 10.9455 5.56135 11.6875 5.56135 12.7306C5.56135 13.3183 5.71559 13.8104 6.01672 14.2071C6.31784 14.6038 6.67773 14.8903 7.10371 15.0666C7.52236 15.2429 7.92631 15.331 8.31557 15.331C9.07207 15.331 9.7037 15.0886 10.2178 14.6111H10.2105Z" fill="white"/>
<path d="M31.8258 13.3109H23.6072C23.7394 14.0529 24.0699 14.6479 24.6061 15.1107C25.1349 15.5735 25.884 15.8012 26.8608 15.8012C27.5659 15.8012 28.2269 15.6616 28.8512 15.3825C29.4755 15.1033 29.9676 14.714 30.3348 14.2071C31.4586 14.7581 32.9569 15.3605 34.8224 15.9995C34.3009 17.1749 33.3535 18.1152 31.9874 18.813C30.6139 19.5109 28.8292 19.8562 26.6332 19.8562C23.7761 19.8562 21.6609 19.195 20.2948 17.8801C18.9213 16.5578 18.2383 14.8242 18.2383 12.6718C18.2383 10.5195 18.9213 8.86664 20.2801 7.55172C21.6388 6.24414 23.7614 5.58301 26.6332 5.58301C28.3444 5.58301 29.8354 5.8695 31.0913 6.44248C32.3546 7.01547 33.3167 7.80883 33.9924 8.82257C34.6682 9.83631 34.9987 11.0043 34.9987 12.3119C34.9987 12.7526 34.984 13.0759 34.9472 13.2962H31.8184L31.8258 13.3109ZM24.9219 9.88038C24.3857 10.2036 24.0038 10.637 23.7908 11.1953H29.7399C29.5416 10.6591 29.2111 10.2256 28.7557 9.89507C28.3004 9.56451 27.7128 9.4029 26.993 9.4029C26.1558 9.4029 25.4654 9.56451 24.9292 9.88038H24.9219Z" fill="white"/>
<path d="M40.61 19.2758C39.1558 18.8791 37.7897 18.2767 36.5117 17.476L39.1558 13.8692C39.927 14.4201 40.8597 14.8535 41.9541 15.1694C43.0484 15.4779 43.9885 15.6322 44.7744 15.6322C45.5603 15.6322 46.1111 15.5294 46.5298 15.3163C46.941 15.1033 47.1467 14.8315 47.1467 14.4936C47.1467 14.2218 47.0439 14.0161 46.8456 13.8618C46.6473 13.7076 46.3682 13.6341 46.0156 13.6341C45.7953 13.6341 45.5529 13.6415 45.2738 13.6635C44.9947 13.6855 44.7744 13.7002 44.6055 13.7149C43.7315 13.8178 42.8354 13.8692 41.91 13.8692C40.4117 13.8692 39.1998 13.59 38.2671 13.0244C37.3343 12.4588 36.8716 11.5405 36.8716 10.2623C36.8716 8.78579 37.5693 7.63248 38.9648 6.82443C40.3603 6.00903 42.4094 5.59766 45.1122 5.59766C46.4416 5.59766 47.7783 5.78865 49.1297 6.16329C50.4812 6.53794 51.6783 7.11092 52.7213 7.86755L49.8201 10.7912C48.8653 10.2844 47.9693 9.93176 47.1394 9.71873C46.3094 9.5057 45.4721 9.40285 44.6348 9.40285C44.0473 9.40285 43.5405 9.52039 43.1219 9.75546C42.7032 9.99053 42.4902 10.2623 42.4902 10.5635C42.4902 10.7986 42.5784 10.9822 42.7546 11.1145C42.9309 11.2467 43.1586 11.3128 43.445 11.3128C43.7315 11.3128 44.1281 11.2908 44.6275 11.2393C45.8541 11.1585 46.7721 11.1145 47.3744 11.1145C49.1224 11.1145 50.4738 11.4083 51.4359 11.996C52.3907 12.5836 52.8755 13.4872 52.8755 14.6919C52.8755 16.5064 52.1704 17.8213 50.7602 18.6367C49.3501 19.4521 47.3964 19.8561 44.9139 19.8561C43.5038 19.8561 42.0716 19.6578 40.6173 19.2611L40.61 19.2758Z" fill="white"/>
<path d="M72.4341 5.82531L66.1839 11.5258C68.3212 14.5523 70.3116 17.2482 72.155 19.621H65.4788L64.1935 17.5568C63.3562 16.161 62.798 15.2575 62.5263 14.8314L60.4331 16.7487V19.621H54.6382C54.7704 16.4255 54.8365 13.1933 54.8365 9.917C54.8365 6.64071 54.7704 3.32034 54.6382 0.00732422H60.4331V10.6957C62.0636 9.03548 63.5986 7.41203 65.0455 5.83265H72.4341V5.82531Z" fill="white"/>
<path d="M73.969 19.0702C73.4475 18.5412 73.1904 17.9095 73.1904 17.1676C73.1904 16.4256 73.4475 15.8012 73.969 15.2796C74.4904 14.7581 75.1221 14.501 75.8565 14.501C76.591 14.501 77.2079 14.7654 77.7367 15.2943C78.2655 15.8232 78.53 16.4477 78.53 17.1749C78.53 17.9021 78.2655 18.5486 77.7367 19.0775C77.2079 19.6064 76.5836 19.8709 75.8565 19.8709C75.1294 19.8709 74.4904 19.6064 73.969 19.0775V19.0702Z" fill="white"/>
<path d="M84.1413 19.2758C82.687 18.8791 81.3209 18.2767 80.043 17.476L82.687 13.8692C83.4582 14.4201 84.391 14.8535 85.4853 15.1694C86.5797 15.4779 87.5198 15.6322 88.3056 15.6322C89.0915 15.6322 89.6424 15.5294 90.061 15.3163C90.4723 15.1033 90.6779 14.8315 90.6779 14.4936C90.6779 14.2218 90.5751 14.0161 90.3768 13.8618C90.1785 13.7076 89.8994 13.6341 89.5469 13.6341C89.3265 13.6341 89.0842 13.6415 88.8051 13.6635C88.526 13.6855 88.3056 13.7002 88.1367 13.7149C87.2627 13.8178 86.3667 13.8692 85.4412 13.8692C83.9429 13.8692 82.7311 13.59 81.7983 13.0244C80.8656 12.4588 80.4029 11.5405 80.4029 10.2623C80.4029 8.78579 81.1006 7.63248 82.4961 6.82443C83.8915 6.00903 85.9407 5.59766 88.6435 5.59766C89.9729 5.59766 91.3096 5.78865 92.661 6.16329C94.0124 6.53794 95.2096 7.11092 96.2525 7.86755L93.3514 10.7912C92.3966 10.2844 91.5005 9.93176 90.6706 9.71873C89.8407 9.5057 89.0034 9.40285 88.1661 9.40285C87.5785 9.40285 87.0717 9.52039 86.6531 9.75546C86.2345 9.99053 86.0215 10.2623 86.0215 10.5635C86.0215 10.7986 86.1096 10.9822 86.2859 11.1145C86.4621 11.2467 86.6898 11.3128 86.9763 11.3128C87.2627 11.3128 87.6593 11.2908 88.1588 11.2393C89.3853 11.1585 90.3034 11.1145 90.9056 11.1145C92.6536 11.1145 94.005 11.4083 94.9672 11.996C95.922 12.5836 96.4067 13.4872 96.4067 14.6919C96.4067 16.5064 95.7016 17.8213 94.2915 18.6367C92.8813 19.4521 90.9277 19.8561 88.4452 19.8561C87.035 19.8561 85.6028 19.6578 84.1486 19.2611L84.1413 19.2758Z" fill="white"/>
<path d="M112.132 6.53061C113.006 7.15502 113.689 7.9998 114.173 9.06496C114.658 10.1301 114.908 11.3055 114.908 12.5837C114.908 13.8619 114.665 15.0299 114.173 16.1538C113.689 17.2704 112.998 18.1739 112.117 18.8498C111.235 19.5256 110.229 19.8708 109.106 19.8708C107.798 19.8708 106.674 19.599 105.742 19.0481C104.809 18.5045 104.119 17.6597 103.663 16.5137C103.663 17.4687 103.7 19.0114 103.766 21.127C103.832 23.1765 103.869 24.6237 103.869 25.4611H98.1694C98.2723 22.3317 98.3237 19.0628 98.3237 15.6543C98.3237 12.2458 98.2723 8.97681 98.1694 5.84744H103.01L103.744 8.99885C104.214 7.8235 104.919 6.96402 105.859 6.41308C106.799 5.86948 107.908 5.59033 109.186 5.59033C110.281 5.59033 111.265 5.89886 112.139 6.52327L112.132 6.53061ZM108.386 14.6111C108.9 14.1337 109.157 13.5093 109.157 12.7306C109.157 11.8711 108.922 11.1732 108.452 10.637C107.982 10.1007 107.343 9.82894 106.535 9.82894C105.61 9.82894 104.912 10.0493 104.442 10.4974C103.972 10.9455 103.737 11.6875 103.737 12.7306C103.737 13.3183 103.891 13.8104 104.192 14.2071C104.493 14.6038 104.853 14.8903 105.279 15.0666C105.698 15.2429 106.102 15.331 106.491 15.331C107.247 15.331 107.879 15.0886 108.393 14.6111H108.386Z" fill="white"/>
<path d="M130.618 6.61869C131.499 7.30186 132.182 8.19807 132.674 9.31465C133.159 10.4312 133.409 11.6213 133.409 12.8848C133.409 14.1483 133.166 15.331 132.674 16.4035C132.19 17.4686 131.507 18.3134 130.633 18.9378C129.758 19.5622 128.774 19.8708 127.68 19.8708C126.402 19.8708 125.293 19.599 124.353 19.048C123.413 18.5044 122.708 17.6376 122.238 16.4622L121.503 19.6137H116.663C116.766 16.4549 116.817 13.186 116.817 9.80683C116.817 6.4277 116.766 3.12937 116.663 0H122.363L122.289 3.09999C122.208 5.28173 122.164 7.23575 122.164 8.94735C122.62 7.80139 123.31 6.9566 124.243 6.413C125.175 5.8694 126.299 5.59026 127.607 5.59026C128.73 5.59026 129.736 5.92817 130.618 6.61134V6.61869ZM126.953 14.8241C127.423 14.2878 127.658 13.59 127.658 12.7305C127.658 11.9592 127.401 11.3348 126.887 10.85C126.373 10.3725 125.741 10.13 124.985 10.13C124.595 10.13 124.191 10.2182 123.773 10.3945C123.354 10.5708 122.994 10.8573 122.686 11.254C122.385 11.6507 122.23 12.1428 122.23 12.7305C122.23 13.7736 122.465 14.5156 122.935 14.9637C123.405 15.4118 124.103 15.6322 125.029 15.6322C125.836 15.6322 126.475 15.3604 126.946 14.8241H126.953Z" fill="white"/>
<path d="M135.95 19.0702C135.428 18.5412 135.171 17.9095 135.171 17.1676C135.171 16.4256 135.428 15.8012 135.95 15.2796C136.471 14.7581 137.103 14.501 137.837 14.501C138.572 14.501 139.189 14.7654 139.718 15.2943C140.246 15.8232 140.511 16.4477 140.511 17.1749C140.511 17.9021 140.246 18.5486 139.718 19.0775C139.189 19.6064 138.565 19.8709 137.837 19.8709C137.11 19.8709 136.471 19.6064 135.95 19.0775V19.0702Z" fill="white"/>
<path d="M148.12 9.57912C148.825 7.03743 150.581 5.77393 153.386 5.77393C153.871 5.77393 154.341 5.81066 154.796 5.87677L153.989 11.5258C152.777 11.0703 151.785 10.8426 151.014 10.8426C150.059 10.8426 149.347 11.1291 148.899 11.7021C148.443 12.2751 148.216 13.0391 148.216 13.994V13.972L148.194 15.6395C148.194 16.8296 148.23 18.1592 148.297 19.621H142.274C142.406 17.2042 142.472 14.9123 142.472 12.7673C142.472 10.6222 142.406 8.31562 142.274 5.86208C143.383 5.9135 144.235 5.93554 144.823 5.93554C145.447 5.93554 146.291 5.9135 147.371 5.86208L148.128 9.59381L148.12 9.57912Z" fill="white"/>
<path d="M171.388 12.7083C171.388 15.1765 171.447 17.4831 171.564 19.6134C170.492 19.562 169.64 19.54 169.015 19.54C168.428 19.54 167.576 19.562 166.467 19.6134L165.732 15.9111C165.343 17.2554 164.741 18.2544 163.918 18.9009C163.096 19.5473 162.134 19.8705 161.047 19.8705C160.04 19.8705 159.166 19.6502 158.425 19.2021C157.683 18.754 157.125 18.1589 156.75 17.4023C156.375 16.6457 156.184 15.8009 156.184 14.8533V11.2244C156.184 8.99121 156.14 7.1988 156.06 5.85449H161.73C161.627 8.32273 161.575 10.7689 161.575 13.1931C161.575 13.935 161.759 14.5227 162.119 14.9561C162.479 15.3895 162.941 15.6099 163.492 15.6099C164.014 15.6099 164.469 15.3822 164.866 14.9194C165.262 14.4566 165.497 13.8248 165.586 13.0168V12.4365C165.622 11.1215 165.637 10.218 165.637 9.71111C165.637 8.55045 165.6 7.26491 165.534 5.85449H171.557C171.439 7.97012 171.38 10.2547 171.38 12.7083H171.388Z" fill="white"/>
</svg>
